<svg xmlns="http://www.w3.org/2000/svg" xmlns:xlink="http://www.w3.org/1999/xlink" width="48" height="48" fill-rule="nonzero" viewBox="0 0 256 256"><defs><linearGradient id="color-1" x1="9.993" x2="40.615" y1="9.993" y2="40.615" gradientUnits="userSpaceOnUse"><stop offset="0" stop-color="#2aa4f4"/><stop offset="1" stop-color="#007ad9"/></linearGradient></defs><g fill="none" fill-rule="nonzero" stroke="none" stroke-dashoffset="0" stroke-linecap="butt" stroke-linejoin="miter" stroke-miterlimit="10" stroke-width="1" font-family="none" font-size="none" font-weight="none" text-anchor="none" style="mix-blend-mode:normal"><g><path fill="url(#color-1)" d="M24,4c-11.046,0 -20,8.954 -20,20c0,11.046 8.954,20 20,20c11.046,0 20,-8.954 20,-20c0,-11.046 -8.954,-20 -20,-20z" transform="scale(5.33333,5.33333)"/><path fill="#fff" d="M26.707,29.301h5.176l0.813,-5.258h-5.989v-2.874c0,-2.184 0.714,-4.121 2.757,-4.121h3.283v-4.588c-0.577,-0.078 -1.797,-0.248 -4.102,-0.248c-4.814,0 -7.636,2.542 -7.636,8.334v3.498h-4.949v5.258h4.948v14.452c0.98,0.146 1.973,0.246 2.992,0.246c0.921,0 1.82,-0.084 2.707,-0.204z" transform="scale(5.33333,5.33333)"/></g></g></svg>